<?xml version="1.0" standalone="no"?>
<!DOCTYPE svg PUBLIC "-//W3C//DTD SVG 20010904//EN"
 "http://www.w3.org/TR/2001/REC-SVG-20010904/DTD/svg10.dtd">
<svg version="1.0" xmlns="http://www.w3.org/2000/svg"
 width="512.000000pt" height="512.000000pt" viewBox="0 0 512.000000 512.000000"
 preserveAspectRatio="xMidYMid meet">
<metadata>
Created by potrace 1.11, written by Peter Selinger 2001-2013
</metadata>
<g transform="translate(0.000000,512.000000) scale(0.100000,-0.100000)"
fill="#000000" stroke="none">
<path d="M4064 4424 c-23 -56 -37 -144 -30 -199 8 -56 46 -143 75 -169 20 -18
20 -19 1 -67 -49 -124 -105 -206 -161 -235 -40 -20 -145 -18 -214 6 -32 11
-101 43 -154 72 -308 166 -451 225 -626 259 -89 18 -321 17 -400 0 -468 -104
-869 -481 -1345 -1266 -192 -316 -323 -497 -479 -658 -111 -114 -200 -184
-297 -229 -60 -29 -79 -33 -149 -33 -61 0 -88 5 -110 18 -18 11 -6 -5 28 -38
97 -93 207 -133 312 -114 84 15 202 80 300 167 112 98 170 160 467 493 130
146 263 287 295 313 76 61 203 123 277 137 108 20 221 -14 281 -83 45 -53 59
-134 52 -294 -7 -169 -42 -282 -170 -555 -66 -140 -98 -235 -104 -310 l-6 -66
76 -154 c89 -179 117 -271 117 -381 0 -128 -56 -238 -146 -289 -80 -45 -124
-97 -124 -144 0 -30 54 -76 95 -81 58 -7 147 48 266 166 173 172 200 281 134
544 -30 118 -35 156 -35 251 0 141 15 200 89 350 67 135 152 266 325 499 225
303 314 456 324 556 l4 49 177 0 c171 0 282 10 337 32 21 7 29 7 36 -3 21 -33
50 -151 55 -225 8 -113 -9 -154 -89 -224 -91 -79 -107 -141 -46 -183 55 -39
148 -6 226 79 83 90 115 182 130 367 13 160 37 202 215 381 152 152 228 251
303 391 36 68 50 86 63 81 45 -17 74 -15 150 10 78 27 84 27 155 15 109 -18
175 9 216 91 22 42 27 99 9 99 -29 0 -202 93 -276 148 -114 85 -127 90 -218
91 -44 0 -100 7 -125 14 l-45 13 -7 59 c-15 123 -73 212 -170 261 l-49 25 -15
-37z"/>
</g>
</svg>
