<?xml version="1.0" encoding="utf-8"?>
<!-- Generator: Adobe Illustrator 16.0.0, SVG Export Plug-In . SVG Version: 6.00 Build 0)  -->
<!DOCTYPE svg PUBLIC "-//W3C//DTD SVG 1.1//EN" "http://www.w3.org/Graphics/SVG/1.1/DTD/svg11.dtd">
<svg version="1.1" id="Layer_1" xmlns="http://www.w3.org/2000/svg" xmlns:xlink="http://www.w3.org/1999/xlink" x="0px" y="0px"
	 width="1049.9px" height="510.2px" viewBox="0 0 1049.9 510.2" style="enable-background:new 0 0 1049.9 510.2;"
	 xml:space="preserve">
<style type="text/css">
<![CDATA[
	.st0{clip-path:url(#SVGID_8_);mask:url(#SVGID_9_);fill:url(#SVGID_11_);}
	.st1{filter:url(#Adobe_OpacityMaskFilter);}
	.st2{clip-path:url(#SVGID_13_);fill:#2B84C6;}
	.st3{clip-path:url(#SVGID_4_);mask:url(#SVGID_5_);fill:#2B84C6;}
	.st4{clip-path:url(#SVGID_8_);fill:url(#SVGID_10_);}
	.st5{clip-path:url(#SVGID_2_);}
	.st6{fill:#2B84C6;}
	.st7{fill:#FFFFFF;}
	.st8{clip-path:url(#SVGID_4_);fill:url(#SVGID_6_);}
	.st9{filter:url(#Adobe_OpacityMaskFilter_1_);}
]]>
</style>
<g>
	<defs>
		<rect id="SVGID_1_" x="13.9" width="976" height="542.2"/>
	</defs>
	<clipPath id="SVGID_2_">
		<use xlink:href="#SVGID_1_"  style="overflow:visible;"/>
	</clipPath>
	<g class="st5">
		<path class="st7" d="M262.1,377.6V240.9h58.3c26,0,39,10.6,39,31.8c0,15.5-8.5,26.7-25.4,33.4c18.1,3.4,27.1,13.7,27.1,31.1
			c0,27-14.2,40.4-42.7,40.4H262.1z M317.3,363.2c16.3,0,24.5-8.3,24.5-24.9c0-16.1-10.9-24.2-32.8-24.2h-7.6v-11.6
			c26.1-3.5,39.2-12.9,39.2-28.3c0-12.7-7.3-19.1-21.8-19.1h-39v108H317.3z"/>
		<path class="st7" d="M368.2,347.2c0-20.6,13.6-30.9,40.7-30.9c8.7,0,17.5,0.6,26.2,1.9v-9.5c0-11.5-9-17.3-27.1-17.3
			c-10.3,0-20.9,1.6-31.7,4.8V282c10.8-3.2,21.4-4.8,31.7-4.8c29.8,0,44.7,10.4,44.7,31.2v69.2h-9.9l-6.1-9.9
			c-10,6.6-20.9,9.9-32.7,9.9C380.2,377.6,368.2,367.5,368.2,347.2z M408.9,330.7c-15.4,0-23,5.4-23,16.3s6.1,16.2,18.2,16.2
			c12.2,0,22.6-3.3,31.1-9.8v-20.8C426.4,331.3,417.7,330.7,408.9,330.7z"/>
		<path class="st7" d="M467.2,377.6V277.2h11.9l3.2,12.8c10.3-8.5,21.5-12.8,33.8-12.8c25,0,37.6,12.5,37.6,37.4v63H536v-63.3
			c0-14.9-7.4-22.4-22.3-22.4c-10.1,0-19.8,4.2-28.9,12.7v72.9H467.2z"/>
		<path class="st7" d="M568.1,377.6V240.9h17.7V285c9.8-5.2,21-7.8,33.7-7.8c25,0,37.5,9.7,37.5,29c0,14-9.6,23.7-28.7,29.1
			l32.1,42.3h-22.4L606.1,335v-7.9c22.1-2,33.2-9,33.2-21c0-9.7-7-14.5-21-14.5c-11,0-21.9,3-32.5,9v77H568.1z"/>
		<path class="st7" d="M662.1,347.2c0-20.6,13.6-30.9,40.7-30.9c8.7,0,17.5,0.6,26.2,1.9v-9.5c0-11.5-9-17.3-27.1-17.3
			c-10.3,0-20.9,1.6-31.7,4.8V282c10.8-3.2,21.4-4.8,31.7-4.8c29.8,0,44.7,10.4,44.7,31.2v69.2h-9.9l-6.1-9.9
			c-10,6.6-20.9,9.9-32.7,9.9C674.1,377.6,662.1,367.5,662.1,347.2z M702.8,330.7c-15.4,0-23,5.4-23,16.3s6.1,16.2,18.2,16.2
			c12.2,0,22.6-3.3,31.1-9.8v-20.8C720.3,331.3,711.6,330.7,702.8,330.7z"/>
		<path class="st7" d="M761.1,377.6V277.2H773l3.2,12.8c8.8-8.5,19.4-12.8,31.7-12.8v14.7c-12,0-21.7,4.2-29.2,12.7v72.9H761.1z"/>
		<path class="st7" d="M806.7,327.4c0-33.5,15.9-50.2,47.8-50.2c31.9,0,47.8,16.7,47.8,50.2c0,33.4-15.9,50.1-47.8,50.1
			C822.8,377.5,806.9,360.8,806.7,327.4z M854.5,363.2c20.1,0,30.1-12.1,30.1-36.2c0-23.6-10-35.5-30.1-35.5
			c-20.1,0-30.1,11.8-30.1,35.5C824.4,351.1,834.5,363.2,854.5,363.2z"/>
	</g>
	<g class="st5">
		<path class="st6" d="M850.3,327.4c0-33.5,15.9-50.2,47.8-50.2c31.9,0,47.8,16.7,47.8,50.2c0,33.4-15.9,50.1-47.8,50.1
			C866.4,377.5,850.4,360.8,850.3,327.4z M898.1,363.2c20.1,0,30.1-12.1,30.1-36.2c0-23.6-10-35.5-30.1-35.5
			c-20.1,0-30.1,11.8-30.1,35.5C868,351.1,878,363.2,898.1,363.2z"/>
	</g>
	<g class="st5">
		<path class="st7" d="M734.8,259.5v-3.7c3.3,1.2,6.9,1.8,10.7,1.8c5.4,0,8.1-2,8.1-5.9c0-3.4-2-5.1-6-5.1h-4.1
			c-6.6,0-9.9-2.9-9.9-8.6c0-6,4.2-9,12.7-9c3.7,0,7.1,0.4,10.2,1.3v3.7c-3.2-1.2-6.6-1.8-10.2-1.8c-5.7,0-8.6,1.9-8.6,5.7
			c0,3.4,1.9,5.1,5.8,5.1h4.1c6.7,0,10.1,2.9,10.1,8.6c0,6.2-4.1,9.2-12.2,9.2C741.7,260.8,738.1,260.3,734.8,259.5z"/>
		<path class="st7" d="M765.7,260.6h-4.2l13.4-31.5h4.5l13.4,31.5h-4.5l-4.1-9.9h-10.4l1.1-3.3h7.9l-5.9-14.3L765.7,260.6z"/>
		<path class="st7" d="M822.8,229.1l-13.4,31.5H805l-13.4-31.5h4.3l11.5,27.2l11.2-27.2H822.8z"/>
		<path class="st7" d="M832.9,229.1v31.5h-4.1v-31.5H832.9z"/>
		<path class="st7" d="M842,260.6v-31.5h4.1l19.3,25.4v-25.4h3.9v31.5h-4.1L845.9,235v25.6H842z"/>
		<path class="st7" d="M901.4,259.3c-2.5,1-5.3,1.5-8.2,1.5c-11.4,0-17.1-5.5-17.1-16.4c0-10.3,5.5-15.5,16.5-15.5
			c3.2,0,6.1,0.4,8.8,1.3v3.5c-2.7-1-5.5-1.5-8.4-1.5c-8.6,0-12.9,4.1-12.9,12.2c0,8.7,4.2,13.1,12.7,13.1c1.3,0,2.8-0.2,4.5-0.5
			v-10.7h4.1V259.3z"/>
		<path class="st7" d="M908.6,259.5v-3.7c3.3,1.2,6.9,1.8,10.7,1.8c5.4,0,8.1-2,8.1-5.9c0-3.4-2-5.1-6-5.1h-4
			c-6.6,0-9.9-2.9-9.9-8.6c0-6,4.2-9,12.7-9c3.7,0,7.1,0.4,10.2,1.3v3.7c-3.2-1.2-6.6-1.8-10.2-1.8c-5.7,0-8.6,1.9-8.6,5.7
			c0,3.4,1.9,5.1,5.8,5.1h4c6.7,0,10.1,2.9,10.1,8.6c0,6.2-4.1,9.2-12.2,9.2C915.5,260.8,911.9,260.3,908.6,259.5z"/>
	</g>
	<g class="st5">
		<defs>
			<path id="SVGID_3_" d="M791.6,391.7c-201.2,83.7-465.5-1-465.5-1c265.8,101,467.7,15.5,471.7,13.9l0.2,15.5l24.1-33.8l-41.8-4.6
				L791.6,391.7z"/>
		</defs>
		<clipPath id="SVGID_4_">
			<use xlink:href="#SVGID_3_"  style="overflow:visible;"/>
		</clipPath>
		<defs>
			<filter id="Adobe_OpacityMaskFilter" filterUnits="userSpaceOnUse" x="326.1" y="381.7" width="495.9" height="110">
				<feColorMatrix  type="matrix" values="1 0 0 0 0  0 1 0 0 0  0 0 1 0 0  0 0 0 1 0"/>
			</filter>
		</defs>
		<mask maskUnits="userSpaceOnUse" x="326.1" y="381.7" width="495.9" height="110" id="SVGID_5_">
			<g class="st1">
				
					<linearGradient id="SVGID_6_" gradientUnits="userSpaceOnUse" x1="-421.9258" y1="786.2163" x2="-421.3838" y2="786.2163" gradientTransform="matrix(914.6181 0 0 -914.6181 386227.2188 719524.125)">
					<stop  offset="0" style="stop-color:#000000"/>
					<stop  offset="1" style="stop-color:#FFFFFF"/>
				</linearGradient>
				<rect x="326.1" y="381.7" class="st8" width="495.9" height="110"/>
			</g>
		</mask>
		<rect x="326.1" y="381.7" class="st3" width="495.9" height="110"/>
	</g>
	<g class="st5">
		<defs>
			<path id="SVGID_7_" d="M261.7,174.9c1.7,0,1.7-2.7,0-2.7C260,172.2,260,174.9,261.7,174.9"/>
		</defs>
		<clipPath id="SVGID_8_">
			<use xlink:href="#SVGID_7_"  style="overflow:visible;"/>
		</clipPath>
		<defs>
			<filter id="Adobe_OpacityMaskFilter_1_" filterUnits="userSpaceOnUse" x="260" y="172.2" width="3.5" height="2.7">
				<feColorMatrix  type="matrix" values="1 0 0 0 0  0 1 0 0 0  0 0 1 0 0  0 0 0 1 0"/>
			</filter>
		</defs>
		<mask maskUnits="userSpaceOnUse" x="260" y="172.2" width="3.5" height="2.7" id="SVGID_9_">
			<g class="st9">
				
					<linearGradient id="SVGID_10_" gradientUnits="userSpaceOnUse" x1="-374.9385" y1="772.1577" x2="-374.3962" y2="772.1577" gradientTransform="matrix(4.8299 0 0 -4.8299 2071.3152 3903.0159)">
					<stop  offset="0" style="stop-color:#000000"/>
					<stop  offset="1" style="stop-color:#FFFFFF"/>
				</linearGradient>
				<rect x="260" y="172.2" class="st4" width="3.5" height="2.7"/>
			</g>
		</mask>
		
			<linearGradient id="SVGID_11_" gradientUnits="userSpaceOnUse" x1="-374.9385" y1="772.1577" x2="-374.3962" y2="772.1577" gradientTransform="matrix(4.8299 0 0 -4.8299 2071.3152 3903.0159)">
			<stop  offset="0" style="stop-color:#FFFFFF"/>
			<stop  offset="1" style="stop-color:#70BF44"/>
		</linearGradient>
		<rect x="260" y="172.2" class="st0" width="3.5" height="2.7"/>
	</g>
	<g class="st5">
		<path class="st7" d="M942.3,368.4c0-5.4,2.7-8.2,8.2-8.2c5.5,0,8.3,2.7,8.3,8.2c0,5.3-2.8,7.9-8.3,7.9
			C945.2,376.4,942.4,373.7,942.3,368.4z M950.5,375.3c4.6,0,6.9-2.3,6.9-6.9c0-4.7-2.3-7-6.9-7c-4.5,0-6.8,2.3-6.8,7
			C943.7,373,946,375.3,950.5,375.3z M947.1,373.5v-10.2h4.4c1.9,0,2.9,0.8,2.9,2.4c0,1.3-1,2.3-2.9,3l3.5,4.8h-1.7l-3.3-4.6v-0.9
			c2-0.3,2.9-1.1,2.9-2.3c0-0.9-0.5-1.4-1.6-1.4h-2.9v9.2H947.1z"/>
	</g>
	<g class="st5">
		<defs>
			<rect id="SVGID_12_" x="13.9" width="976" height="542.2"/>
		</defs>
		<clipPath id="SVGID_13_">
			<use xlink:href="#SVGID_12_"  style="overflow:visible;"/>
		</clipPath>
		<path class="st2" d="M39.4,286.1c0,0,29.6,33.5,95-75.1c65.4-108.6,125.1-137.2,201.9-92.7c35.3,20.5,46.1,15.9,56.3-14.2
			c0,0-15.4-11.9-4.5-36.4c0,0,20.5,5.1,19.3,29.6c0,0,9.1,4,21,2.8c5.7-0.6,13.2,8.9,25,15c11.8,6.1,14.3,5.8,14.3,5.8
			s1.3,6.5-5.5,13.2c0,0-5.5,4.4-11.5,3.6c-6-0.7-9.1-3.2-18.2,0.9c-9.2,4.1-14.3-0.3-14.3-0.3s-9.3,23.6-30.7,42.3
			c-21.3,18.8-18.5,27.6-19.3,37.5s-3.7,23.9-17.1,33c-13.4,9.1-25.6-4.3-9.1-14.8s1.7-40.4,1.7-40.4s-4.8,5.7-48.3,4
			c0,0,4,8-16.8,36.7c-20.8,28.7-47.5,59.4-48.9,85.3c-1.4,25.9,9.7,32.7,5.7,52c-4,19.3-25,32.1-31.6,35.8
			c-6.5,3.7-19.8-2.8-10.8-13.1c6-6.8,13.1-2.8,19.6-21.6c6.5-18.8-12.2-47.8-14.5-52.3c-2.3-4.5-2.6-12.8,5.4-30.4
			c8-17.6,24.5-45.5,16.2-75.1c-3.1-11.1-30.5-26.8-64.4,11.1c-29.2,32.6-47.5,53.9-62.6,64.7C69.7,309.6,54.7,302.1,39.4,286.1"/>
	</g>
</g>
</svg>
